<svg xmlns="http://www.w3.org/2000/svg" viewBox="0 0 800 800" fill="none">
  <defs>
    <linearGradient id="bg" x1="0" y1="0" x2="0" y2="1">
      <stop offset="0%" stop-color="#f7f2ec"/>
      <stop offset="100%" stop-color="#ebe4dc"/>
    </linearGradient>
    <linearGradient id="stone" x1="0" y1="0" x2="1" y2="1">
      <stop offset="0%" stop-color="#d9d2c8"/>
      <stop offset="100%" stop-color="#c4bbb0"/>
    </linearGradient>
    <linearGradient id="jar1" x1="0" y1="0" x2="0" y2="1">
      <stop offset="0%" stop-color="#f8d7e3"/>
      <stop offset="100%" stop-color="#e8a8c0"/>
    </linearGradient>
    <linearGradient id="jar2" x1="0" y1="0" x2="0" y2="1">
      <stop offset="0%" stop-color="#f5c4c4"/>
      <stop offset="100%" stop-color="#d96b6b"/>
    </linearGradient>
    <linearGradient id="jar3" x1="0" y1="0" x2="0" y2="1">
      <stop offset="0%" stop-color="#ffd9a8"/>
      <stop offset="100%" stop-color="#f0a54a"/>
    </linearGradient>
    <linearGradient id="jar4" x1="0" y1="0" x2="0" y2="1">
      <stop offset="0%" stop-color="#ffe8b8"/>
      <stop offset="100%" stop-color="#e8b85c"/>
    </linearGradient>
  </defs>
  <rect width="800" height="800" fill="url(#bg)"/>
  <ellipse cx="400" cy="620" rx="310" ry="42" fill="#b8afa4" opacity="0.35"/>
  <path d="M120 560 Q400 500 680 560 L680 680 Q400 720 120 680 Z" fill="url(#stone)"/>
  <rect x="175" y="290" width="95" height="210" rx="18" fill="url(#jar1)"/>
  <rect x="185" y="275" width="75" height="28" rx="8" fill="#faf8f5" opacity="0.9"/>
  <text x="222" y="395" text-anchor="middle" fill="#5c3d4a" font-family="system-ui,sans-serif" font-size="11" font-weight="600" letter-spacing="2">SAKIZ</text>
  <rect x="295" y="250" width="105" height="250" rx="20" fill="url(#jar2)"/>
  <rect x="308" y="232" width="79" height="30" rx="8" fill="#faf8f5" opacity="0.9"/>
  <text x="347" y="380" text-anchor="middle" fill="#6b2d2d" font-family="system-ui,sans-serif" font-size="11" font-weight="600" letter-spacing="2">Ç0LEK</text>
  <rect x="430" y="270" width="100" height="230" rx="19" fill="url(#jar3)"/>
  <rect x="442" y="252" width="76" height="28" rx="8" fill="#faf8f5" opacity="0.9"/>
  <text x="480" y="385" text-anchor="middle" fill="#6b4520" font-family="system-ui,sans-serif" font-size="11" font-weight="600" letter-spacing="2">MANGO</text>
  <rect x="555" y="300" width="90" height="200" rx="17" fill="url(#jar4)"/>
  <rect x="565" y="284" width="70" height="26" rx="8" fill="#faf8f5" opacity="0.9"/>
  <text x="600" y="400" text-anchor="middle" fill="#5c4a20" font-family="system-ui,sans-serif" font-size="10" font-weight="600" letter-spacing="1.5">NARENC0YE</text>
  <text x="400" y="120" text-anchor="middle" fill="#2d2d2d" font-family="system-ui,sans-serif" font-size="13" letter-spacing="6" opacity="0.5">VÜCUT PEELING</text>
</svg>
