<svg width="367" height="269" viewBox="0 0 367 269" fill="none" xmlns="http://www.w3.org/2000/svg">
<path d="M4 151H53.001V200H4V151ZM124.852 151C122.905 177.082 102.083 197.904 76.001 199.851V151H124.852ZM53.001 79V128H4V127C4 100.49 25.4903 79 52 79H53.001ZM125 128H76.001V79H125V128Z" fill="black"/>
<path d="M196.311 199.772C186.589 199.772 178.667 198.779 172.544 196.792C166.421 194.804 161.694 192.011 158.364 188.413C155.088 184.76 152.805 180.437 151.516 175.441C150.281 170.446 149.663 164.914 149.663 158.845V122.268C149.663 116.091 150.254 110.424 151.436 105.268C152.671 100.058 154.927 95.5464 158.203 91.7329C161.533 87.9194 166.233 84.9653 172.302 82.8706C178.425 80.7759 186.375 79.7285 196.15 79.7285C204.958 79.7285 212.209 80.5342 217.903 82.1455C223.596 83.7031 228.027 86.0396 231.196 89.1548C234.365 92.27 236.567 96.1372 237.803 100.756C239.092 105.322 239.736 110.612 239.736 116.628V117.675L224.348 119.045V116.87C224.348 109.833 223.435 104.597 221.609 101.159C219.836 97.7217 216.882 95.4658 212.747 94.3916C208.611 93.3174 203.079 92.7803 196.15 92.7803C189.329 92.7803 183.689 93.5591 179.231 95.1167C174.773 96.6206 171.443 99.3062 169.241 103.173C167.039 106.987 165.938 112.358 165.938 119.287V161.342C165.938 168.217 167.065 173.481 169.321 177.133C171.577 180.786 174.961 183.31 179.473 184.707C184.038 186.049 189.758 186.721 196.633 186.721C203.401 186.721 208.799 186.264 212.827 185.351C216.909 184.438 219.836 182.37 221.609 179.147C223.435 175.871 224.348 170.769 224.348 163.84V161.906H239.736V162.712C239.736 168.566 239.172 173.803 238.044 178.422C236.97 182.988 234.929 186.855 231.921 190.024C228.914 193.193 224.536 195.61 218.789 197.275C213.096 198.94 205.603 199.772 196.311 199.772ZM269.868 198V81.501H312.085C322.881 81.501 331.045 82.7632 336.577 85.2876C342.109 87.7583 345.842 91.3838 347.776 96.1641C349.763 100.944 350.757 106.718 350.757 113.486C350.757 119.018 349.468 123.852 346.89 127.988C344.312 132.124 339.746 134.97 333.193 136.528L333.435 135.239C338.591 135.937 342.861 137.656 346.245 140.395C349.629 143.081 352.153 146.518 353.818 150.708C355.537 154.897 356.396 159.624 356.396 164.887C356.396 176.435 353.147 184.841 346.648 190.104C340.149 195.368 329.81 198 315.63 198H269.868ZM286.143 185.996H314.421C320.437 185.996 325.352 185.405 329.165 184.223C333.032 183.042 335.879 180.812 337.705 177.536C339.531 174.26 340.444 169.453 340.444 163.115C340.444 159.57 339.827 156.186 338.591 152.963C337.41 149.687 335.234 147.028 332.065 144.987C328.896 142.946 324.331 141.926 318.369 141.926H286.143V185.996ZM286.143 130.888H316.033C320.92 130.888 324.707 130.19 327.393 128.793C330.078 127.343 331.931 125.329 332.952 122.751C334.026 120.173 334.563 117.138 334.563 113.647C334.563 108.007 333.838 103.764 332.388 100.917C330.991 98.0708 328.467 96.1641 324.814 95.1973C321.216 94.1768 316.14 93.6665 309.587 93.6665H286.143V130.888Z" fill="black"/>
<path d="M18.5791 247.537C15.6331 247.537 13.2324 247.236 11.377 246.634C9.52148 246.032 8.08919 245.185 7.08008 244.095C6.08724 242.988 5.39551 241.678 5.00488 240.164C4.63053 238.65 4.44336 236.974 4.44336 235.135V224.051C4.44336 222.179 4.6224 220.462 4.98047 218.899C5.35482 217.321 6.03841 215.953 7.03125 214.798C8.04036 213.642 9.46452 212.747 11.3037 212.112C13.1592 211.478 15.568 211.16 18.5303 211.16C21.1995 211.16 23.3968 211.404 25.1221 211.893C26.8473 212.365 28.1901 213.073 29.1504 214.017C30.1107 214.961 30.778 216.132 31.1523 217.532C31.543 218.916 31.7383 220.519 31.7383 222.342V222.659L27.0752 223.074V222.415C27.0752 220.283 26.7985 218.696 26.2451 217.654C25.708 216.613 24.8128 215.929 23.5596 215.604C22.3063 215.278 20.6299 215.115 18.5303 215.115C16.4632 215.115 14.7542 215.351 13.4033 215.823C12.0524 216.279 11.0433 217.093 10.376 218.265C9.70866 219.42 9.375 221.048 9.375 223.147V235.892C9.375 237.975 9.7168 239.57 10.4004 240.677C11.084 241.784 12.1094 242.549 13.4766 242.972C14.86 243.379 16.5934 243.582 18.6768 243.582C20.7275 243.582 22.3633 243.444 23.584 243.167C24.821 242.89 25.708 242.264 26.2451 241.287C26.7985 240.294 27.0752 238.748 27.0752 236.648V236.062H31.7383V236.307C31.7383 238.081 31.5674 239.668 31.2256 241.067C30.9001 242.451 30.2816 243.623 29.3701 244.583C28.4587 245.543 27.1322 246.276 25.3906 246.78C23.6654 247.285 21.3949 247.537 18.5791 247.537ZM54.6387 247.537C51.6927 247.537 49.2676 247.236 47.3633 246.634C45.4753 246.032 44.0023 245.185 42.9443 244.095C41.8864 242.988 41.1458 241.678 40.7227 240.164C40.2995 238.65 40.0879 236.974 40.0879 235.135V224.026C40.0879 222.155 40.2913 220.438 40.6982 218.875C41.1214 217.312 41.862 215.953 42.9199 214.798C43.9779 213.642 45.4508 212.747 47.3389 212.112C49.2432 211.478 51.6764 211.16 54.6387 211.16C57.487 211.16 59.8307 211.494 61.6699 212.161C63.5091 212.828 64.9414 213.764 65.9668 214.969C66.9922 216.157 67.7083 217.549 68.1152 219.144C68.5384 220.739 68.75 222.472 68.75 224.344V234.793C68.75 236.6 68.5384 238.284 68.1152 239.847C67.7083 241.393 66.984 242.744 65.9424 243.899C64.917 245.039 63.4847 245.934 61.6455 246.585C59.8063 247.22 57.4707 247.537 54.6387 247.537ZM54.6387 243.582C56.7383 243.582 58.4635 243.379 59.8145 242.972C61.1816 242.549 62.1908 241.784 62.8418 240.677C63.5091 239.57 63.8428 237.975 63.8428 235.892V223.123C63.8428 221.023 63.5091 219.396 62.8418 218.24C62.1745 217.085 61.1572 216.279 59.79 215.823C58.4391 215.351 56.722 215.115 54.6387 215.115C52.5716 215.115 50.8219 215.351 49.3896 215.823C47.9574 216.279 46.8669 217.085 46.1182 218.24C45.3857 219.396 45.0195 221.023 45.0195 223.123V235.892C45.0195 237.975 45.3857 239.57 46.1182 240.677C46.8506 241.784 47.9329 242.549 49.3652 242.972C50.7975 243.379 52.5553 243.582 54.6387 243.582ZM78.6133 247V211.697H92.627C95.8984 211.697 98.5107 212.226 100.464 213.284C102.417 214.326 103.825 215.742 104.688 217.532C105.566 219.323 106.006 221.341 106.006 223.587V235.232C106.006 237.771 105.518 239.92 104.541 241.678C103.564 243.419 102.091 244.746 100.122 245.657C98.1527 246.552 95.6706 247 92.6758 247H78.6133ZM83.5449 243.338H92.1875C93.8802 243.338 95.3939 243.159 96.7285 242.801C98.0794 242.426 99.1455 241.694 99.9268 240.604C100.708 239.513 101.099 237.885 101.099 235.721V223.294C101.099 221.113 100.7 219.461 99.9023 218.338C99.1211 217.199 98.055 216.425 96.7041 216.019C95.3695 215.595 93.8639 215.384 92.1875 215.384H83.5449V243.338ZM115.771 211.697H137.817V215.359H120.679V226.98H135.815V230.643H120.679V243.338H138.11V247H115.771V211.697ZM158.936 247V211.697H171.729C175 211.697 177.474 212.08 179.15 212.845C180.827 213.593 181.958 214.692 182.544 216.141C183.146 217.589 183.447 219.339 183.447 221.39C183.447 223.066 183.057 224.531 182.275 225.784C181.494 227.037 180.111 227.9 178.125 228.372L178.198 227.981C179.761 228.193 181.055 228.714 182.08 229.544C183.105 230.358 183.87 231.399 184.375 232.669C184.896 233.938 185.156 235.371 185.156 236.966C185.156 240.465 184.172 243.012 182.202 244.607C180.233 246.202 177.1 247 172.803 247H158.936ZM163.867 243.362H172.437C174.259 243.362 175.749 243.183 176.904 242.825C178.076 242.467 178.939 241.792 179.492 240.799C180.046 239.806 180.322 238.349 180.322 236.429C180.322 235.354 180.135 234.329 179.761 233.353C179.403 232.36 178.743 231.554 177.783 230.936C176.823 230.317 175.439 230.008 173.633 230.008H163.867V243.362ZM163.867 226.663H172.925C174.406 226.663 175.553 226.451 176.367 226.028C177.181 225.589 177.743 224.979 178.052 224.197C178.377 223.416 178.54 222.496 178.54 221.438C178.54 219.729 178.32 218.444 177.881 217.581C177.458 216.718 176.693 216.141 175.586 215.848C174.495 215.538 172.957 215.384 170.972 215.384H163.867V226.663ZM193.604 211.697H198.511V243.216H214.355V247H193.604V211.697ZM235.352 247.537C232.406 247.537 229.98 247.236 228.076 246.634C226.188 246.032 224.715 245.185 223.657 244.095C222.599 242.988 221.859 241.678 221.436 240.164C221.012 238.65 220.801 236.974 220.801 235.135V224.026C220.801 222.155 221.004 220.438 221.411 218.875C221.834 217.312 222.575 215.953 223.633 214.798C224.691 213.642 226.164 212.747 228.052 212.112C229.956 211.478 232.389 211.16 235.352 211.16C238.2 211.16 240.544 211.494 242.383 212.161C244.222 212.828 245.654 213.764 246.68 214.969C247.705 216.157 248.421 217.549 248.828 219.144C249.251 220.739 249.463 222.472 249.463 224.344V234.793C249.463 236.6 249.251 238.284 248.828 239.847C248.421 241.393 247.697 242.744 246.655 243.899C245.63 245.039 244.198 245.934 242.358 246.585C240.519 247.22 238.184 247.537 235.352 247.537ZM235.352 243.582C237.451 243.582 239.176 243.379 240.527 242.972C241.895 242.549 242.904 241.784 243.555 240.677C244.222 239.57 244.556 237.975 244.556 235.892V223.123C244.556 221.023 244.222 219.396 243.555 218.24C242.887 217.085 241.87 216.279 240.503 215.823C239.152 215.351 237.435 215.115 235.352 215.115C233.285 215.115 231.535 215.351 230.103 215.823C228.67 216.279 227.58 217.085 226.831 218.24C226.099 219.396 225.732 221.023 225.732 223.123V235.892C225.732 237.975 226.099 239.57 226.831 240.677C227.563 241.784 228.646 242.549 230.078 242.972C231.51 243.379 233.268 243.582 235.352 243.582ZM259.326 211.697H263.062L283.911 240.823L283.276 241.019V211.697H287.598V247H283.228L263.013 219.168L263.647 218.948V247H259.326V211.697ZM298.242 247V211.697H312.256C315.527 211.697 318.14 212.226 320.093 213.284C322.046 214.326 323.454 215.742 324.316 217.532C325.195 219.323 325.635 221.341 325.635 223.587V235.232C325.635 237.771 325.146 239.92 324.17 241.678C323.193 243.419 321.72 244.746 319.751 245.657C317.782 246.552 315.299 247 312.305 247H298.242ZM303.174 243.338H311.816C313.509 243.338 315.023 243.159 316.357 242.801C317.708 242.426 318.774 241.694 319.556 240.604C320.337 239.513 320.728 237.885 320.728 235.721V223.294C320.728 221.113 320.329 219.461 319.531 218.338C318.75 217.199 317.684 216.425 316.333 216.019C314.998 215.595 313.493 215.384 311.816 215.384H303.174V243.338ZM335.4 211.697H357.446V215.359H340.308V226.98H355.444V230.643H340.308V243.338H357.739V247H335.4V211.697Z" fill="black"/>
</svg>
